<svg width="432" height="100" xmlns="http://www.w3.org/2000/svg" xmlns:xlink="http://www.w3.org/1999/xlink" overflow="hidden"><defs><clipPath id="clip0"><path d="M202 150 634 150 634 250 202 250Z" fill-rule="evenodd" clip-rule="evenodd"/></clipPath><clipPath id="clip1"><path d="M202 150 633 150 633 249 202 249Z" fill-rule="evenodd" clip-rule="evenodd"/></clipPath><clipPath id="clip2"><path d="M202 150 633 150 633 249 202 249Z" fill-rule="evenodd" clip-rule="evenodd"/></clipPath></defs><g clip-path="url(#clip0)" transform="translate(-202 -150)"><g clip-path="url(#clip1)"><g clip-path="url(#clip2)"><path d="M93.1924 231.629 93.0674 231.69 92.9275 231.69C88.9408 231.69 77.3266 230.873 73.9046 229.586 73.4297 229.436 72.1987 228.951 71.6598 227.92 69.3419 223.864 66.7084 218.712 63.9191 213.257 59.9152 205.429 55.7758 197.334 51.9163 191.155 48.5533 185.867 46.6096 183.603 44.218 182.186 42.6315 181.252 40.0947 181.125 37.8217 181.125 37.3512 181.125 36.2495 181.125 36.2495 179.823 36.2495 179.046 37.0905 178.123 37.9459 177.959L38.0884 177.933 38.2279 177.971C41.9827 179.028 48.7335 180.241 67.7706 180.241 71.1992 180.241 79.7706 180.033 85.2975 178.097 85.7701 177.928 85.9644 177.531 85.9644 176.727 85.9644 176.434 85.9644 175.656 86.8174 175.656L87.1894 175.656 87.3618 175.984C87.9191 177.052 89.588 181.219 89.588 182.117 89.588 183.573 88.4145 184.001 87.2128 184.316L87.1937 184.321 87.1739 184.325C85.8903 184.57 81.3707 184.678 79.8699 184.678 76.2027 184.678 60.0833 183.239 51.0479 182.114 56.151 184.908 60.4481 188.917 63.8498 194.046 68.7175 201.256 73.6522 209.96 76.9348 215.992 77.3846 216.791 77.8649 217.666 78.3608 218.566 79.718 221.036 81.1212 223.592 82.4204 225.581 84.1832 228.232 86.1516 229.316 89.2135 229.316 90.8388 229.316 91.9919 229.092 92.9041 228.874L93.1164 228.822 93.3121 228.917C93.7607 229.132 94.0502 229.647 94.0502 230.231 94.0502 230.85 93.7296 231.372 93.1924 231.629" fill="#EAC294" transform="matrix(1.00146 8.75507e-08 8.74228e-08 -1 166.12 394.709)"/><path d="M115.315 202.905C115.315 198.7 112.268 195.874 107.734 195.874 107.461 195.874 107.029 195.914 106.653 195.966 108.091 199.386 111.255 203.894 114.264 203.894 114.987 203.894 115.315 203.382 115.315 202.905ZM142.846 202.905C142.846 198.7 139.8 195.874 135.264 195.874 134.992 195.874 134.56 195.914 134.184 195.966 135.622 199.386 138.787 203.894 141.794 203.894 142.517 203.894 142.846 203.382 142.846 202.905ZM157.508 195.312C157.171 195.312 156.868 195.161 156.674 194.892 148.946 185.335 140.795 181.942 136.16 181.942 133.347 181.942 132.037 183.353 132.037 186.383 132.037 189.507 132.655 192.166 133.242 193.663 144.462 193.829 150.093 200.741 150.093 204.632 150.093 205.295 149.817 207.463 146.278 207.463 141.971 207.463 136.186 204.323 131.179 199.268 128.239 196.299 125.969 193.073 124.551 189.944 118.336 184.137 112.349 181.942 108.63 181.942 105.815 181.942 104.505 183.353 104.505 186.383 104.505 189.506 105.124 192.165 105.71 193.663 116.931 193.829 122.561 200.741 122.561 204.632 122.561 205.295 122.285 207.463 118.746 207.463 114.44 207.463 108.655 204.323 103.648 199.268 98.4447 194.015 95.338 187.954 95.338 183.055 95.338 179.217 97.7558 177.017 101.97 177.017 108.151 177.017 114.318 180.128 118.404 182.738 120.046 183.787 121.689 184.98 123.273 186.251 123.012 185.148 122.87 184.075 122.87 183.055 122.87 179.217 125.287 177.017 129.502 177.017 135.681 177.017 141.85 180.128 145.935 182.738 150.615 185.727 155.324 189.848 158.531 193.762L158.671 193.932 158.671 194.151C158.671 194.791 158.149 195.312 157.508 195.312" fill="#EAC294" transform="matrix(1.00146 8.75507e-08 8.74228e-08 -1 166.12 394.709)"/><path d="M172.63 208.37C172.63 208.829 172.354 209.207 171.811 209.494 170.633 210.248 169.812 211.81 169.812 213.302 169.812 218.848 175.238 223.391 180.323 227.213L180.569 227.396 180.569 227.703C180.569 228.373 179.934 228.961 179.21 228.961 179.039 228.961 178.871 228.93 178.71 228.868L178.621 228.833 178.548 228.774C167.886 220.261 164.103 212.994 164.103 209.356 164.103 205.485 166.29 203.811 167.406 203.811 167.635 203.811 168.245 203.811 170.461 205.832 172.63 207.812 172.63 208.175 172.63 208.37" fill="#EAC294" transform="matrix(1.00146 8.75507e-08 8.74228e-08 -1 166.12 394.709)"/><path d="M196.089 209.067C190.685 209.067 181.262 200.997 181.262 196.37 181.262 194.04 181.689 192.904 183.433 190.577 185.369 188.205 186.383 186.165 186.383 184.657 186.383 180.428 184.214 179.6 180.467 179.6 177.07 179.6 174.431 182.148 174.038 185.799 174.037 186.263 174.012 186.998 172.911 186.998L172.589 186.998 172.406 186.733C171.934 186.05 169.7 184.054 168.593 183.627L168.139 183.453 168.205 182.971C168.742 179.109 172.462 176.894 178.418 176.894 183.686 176.894 194.014 180.578 194.014 189.097 194.014 191.161 192.864 193.451 190.284 196.519 188.565 198.504 187.868 199.888 187.868 201.302 187.868 203.003 189.2 204.387 190.839 204.387 193.047 204.387 194.968 203.176 195.395 202.297 195.547 201.901 195.877 201.658 196.266 201.658 196.67 201.658 197.037 201.918 197.275 202.375L197.301 202.427 197.318 202.484C197.546 203.252 198.769 205.512 199.283 206.253L199.392 206.412 199.392 206.603C199.392 207.344 199.071 209.067 196.089 209.067" fill="#EAC294" transform="matrix(1.00146 8.75507e-08 8.74228e-08 -1 166.12 394.709)"/><path d="M288.982 205.759 289.214 205.812 289.348 206.007C289.517 206.249 289.783 206.732 289.678 207.256 289.617 207.56 289.443 207.812 289.176 207.983L288.954 208.125 288.699 208.062C282.839 206.622 269.097 205.737 261.826 205.737L261.362 205.737 261.235 205.291 260.851 203.935 260.69 203.365 261.254 203.184 261.638 203.061 261.753 203.023 261.875 203.033C263.023 203.125 264.132 203.216 265.195 203.305 268.406 203.572 271.177 203.803 273.375 203.895 274.082 203.894 274.221 203.753 274.221 203.751 274.321 203.561 273.946 202.622 273.805 202.269 270.219 192.745 256.185 179.476 241.466 179.476 234.309 179.476 230.682 182.672 230.682 188.973 230.682 199.388 239.809 214.754 246.396 221.843 252.179 228.189 260.69 232.127 268.612 232.127 277.303 232.127 284.646 227.271 284.646 221.522 284.646 220.493 284.408 219.574 284.155 218.601L284.109 218.422 284.167 218.239 284.296 217.869 284.483 217.325 285.038 217.478 285.934 217.724 286.218 217.802 286.334 218.073 286.528 218.516C287.865 221.603 290.102 226.768 290.724 229.524L290.794 229.83 290.586 230.065C287.341 233.733 277.581 234.711 272.326 234.711L271.592 234.712 270.912 234.712C266.03 234.712 262.908 234.596 255.492 232.216 240.784 227.159 232.143 218.059 227.482 211.313 222.238 203.725 219.851 196.012 219.851 192.055 219.851 182.24 226.865 177.263 240.697 177.263 254.49 177.263 262.85 184.553 266.867 188.056 266.999 188.171 267.125 188.282 267.245 188.386L267.003 187.951C259.273 174.131 244.888 148.407 228.275 148.407 225.948 148.407 223.359 149.003 221.673 149.925 221.455 150.061 221.242 150.129 221.038 150.129 220.883 150.129 220.106 150.071 220.106 148.903L220.106 148.801 220.14 148.702 220.268 148.333 220.323 148.173 220.453 148.064C221.675 147.035 225.827 146.317 228.787 146.317 245.033 146.317 255.699 157.974 259.205 161.804 268.123 171.447 279.753 192.646 284.656 202.508 285.751 204.616 286.52 205.194 288.982 205.759" fill="#EAC294" transform="matrix(1.00146 8.75507e-08 8.74228e-08 -1 166.12 394.709)"/><path d="M313.303 205.091C312.975 204.532 312.632 203.945 312.278 203.34 310.482 200.26 308.446 196.771 306.392 193.757 301.793 187.175 295.635 182.805 293.581 182.805 293.414 182.805 293.171 183.026 293.171 183.425 293.171 185.704 295.604 191.196 299.535 196.094 302.116 199.31 307.24 204.605 313.303 205.091ZM355.14 200.874C355.412 200.588 355.667 200.319 356.071 200.319 356.416 200.319 356.889 200.559 357.128 201.019 357.508 201.867 359.41 204.783 360.364 205.817L360.527 205.994 360.527 206.234C360.527 207.502 358.956 208.573 357.096 208.573 352.771 208.573 347.115 204.207 342.652 199.979 343.554 201.639 344.649 203.799 344.649 204.507 344.649 206.311 342.467 208.819 340.32 208.819 339.252 208.819 338.715 208.049 338.367 207.379 338.058 206.855 337.573 206.026 336.962 204.981 335.004 201.633 331.73 196.037 328.286 190.212 322.036 183.873 316.563 180.339 312.789 180.339 311.026 180.339 310.843 180.942 310.843 182.315 310.843 186.1 314.504 193.06 321.717 205.366 322.877 205.324 324.977 205.105 325.835 204.897L325.908 204.88 325.98 204.88C326.486 204.88 326.887 205.185 326.977 205.64 327.064 206.081 326.842 206.682 325.958 207.047L325.891 207.075 325.82 207.085C325.241 207.178 323.995 207.327 322.982 207.407 323.633 208.399 324.207 209.257 324.773 209.895L325.314 210.503 324.581 210.856 324.324 210.978 324.142 211.066 323.942 211.028 316.899 209.672 316.846 209.662 316.796 209.642C316.011 209.34 315.584 208.707 314.629 207.215 298.316 206.979 283.747 189.744 283.747 181.575 283.747 178.874 285.057 177.387 287.435 177.387 292.002 177.387 298.636 182.155 303.415 187.045 302.521 184.999 302.06 183.235 302.06 181.822 302.06 178.224 304.292 176.4 308.692 176.4 313.173 176.4 318.777 179.151 324.715 184.092 324.494 183.614 324.34 183.138 324.34 182.685 324.34 180.537 327.395 178.372 328.796 178.372 329.212 178.372 330.103 178.57 330.493 179.319L331.444 181.036C335.644 188.619 338.419 193.629 344.303 198.615 346.403 200.385 349.541 202.291 351.462 202.291 353.8 202.291 354.639 201.404 355.14 200.874" fill="#EAC294" transform="matrix(1.00146 8.75507e-08 8.74228e-08 -1 166.12 394.709)"/><path d="M377.348 203.879C371.038 191.574 362.075 183.669 360.297 183.669 359.618 183.669 359.373 184.26 359.373 184.657 359.373 187.072 361.772 192.532 367.041 198.811 369.467 201.814 371.421 203.692 377.348 203.879ZM410.264 202.905C410.264 198.7 407.216 195.874 402.682 195.874 402.409 195.874 401.976 195.914 401.601 195.966 403.039 199.386 406.203 203.894 409.212 203.894 409.935 203.894 410.264 203.382 410.264 202.905ZM465.454 196.932C465.29 197.269 464.935 197.477 464.527 197.477 464.142 197.477 463.771 197.297 463.535 196.994L463.519 196.973 463.505 196.952C458.948 189.956 448.389 181.079 443.019 181.079 442.054 181.079 441.711 181.304 441.711 182.562 441.711 186.294 449.765 199.281 454.272 205.504L454.285 205.521 454.296 205.539 454.376 205.668C454.741 206.25 455.029 206.709 455.029 207.344 455.029 208.028 454.316 208.742 454.008 209.018 453.703 209.292 452.906 209.929 452.111 209.929 449.645 209.929 439.977 203.142 433.165 197.206 434.063 198.711 434.956 200.125 435.693 201.291 437.38 203.961 437.742 204.575 437.742 205.001 437.742 207.024 435.643 209.19 432.519 209.19 431.945 209.19 430.727 208.607 430.35 208.062L430.317 208.016 430.295 207.965C428.648 204.299 426.001 199.028 423.629 194.346 416.042 185.218 408.12 181.942 403.578 181.942 400.764 181.942 399.454 183.353 399.454 186.383 399.454 189.508 400.073 192.166 400.659 193.663 411.879 193.829 417.509 200.741 417.509 204.632 417.509 205.295 417.235 207.463 413.694 207.463 409.388 207.463 403.604 204.323 398.596 199.268 393.754 194.379 390.731 188.791 390.335 184.091 386.177 178.713 381.561 174.792 377.584 174.792 375.251 174.792 374.996 175.74 374.996 177.753 374.996 178.341 374.982 178.911 374.967 179.479 374.809 185.898 374.659 191.961 395.624 220.942 400.62 227.889 404.251 231.864 407.763 234.231 410.005 235.791 413.708 236.962 416.384 236.962 418.928 236.962 420.523 236.16 421.579 235.631 422.176 235.33 422.609 235.114 423.042 235.114 423.846 235.114 424 235.93 424.082 236.369 424.102 236.473 424.121 236.58 424.148 236.683 424.362 237.637 425.265 239.133 425.926 240.226 426.618 241.372 426.858 241.786 426.858 242.138 426.858 243.861 423.986 243.861 423.042 243.861 420.795 243.861 418.167 243.179 415.232 241.832 408.012 238.534 397.259 229.599 389.663 220.587 385.464 215.567 383.982 213.465 382.9 211.931 381.943 210.574 381.244 209.584 379.206 207.312 369.128 206.203 359.306 199.203 352.223 188.069 350.634 185.648 349.182 181.96 349.182 180.342 349.182 178.6 349.933 176.524 353.509 176.524 357.243 176.524 362.838 180.765 369.813 188.853 367.994 184.836 366.981 181.591 366.981 178.493 366.981 173.7 369.576 171.468 375.15 171.468 379.216 171.468 383.692 173.773 388.099 178.134 388.946 178.972 389.783 179.892 390.608 180.86 391.39 178.393 393.592 177.017 396.92 177.017 403.1 177.017 409.267 180.128 413.354 182.738 414.894 183.722 416.434 184.838 417.927 186.02 416.816 184.468 416.154 183.253 416.154 182.438 416.154 180.821 417.819 177.017 420.097 177.017 421.232 177.017 421.792 177.868 422.062 178.277L422.138 178.391C423.75 180.751 425.139 183.085 426.482 185.342 427.633 187.276 428.721 189.104 429.932 190.939 433.114 194.481 439.319 199.466 442.936 201.753 442.927 201.671 442.901 201.561 442.842 201.428 441.725 198.738 439.876 195.664 438.088 192.692 435.303 188.062 432.673 183.689 432.673 180.712 432.673 178.168 435.438 177.263 438.025 177.263 442.446 177.263 447.608 179.345 452.955 183.285 457.316 186.499 461.763 190.955 465.153 195.511 465.656 196.159 465.595 196.642 465.454 196.932" fill="#EAC294" transform="matrix(1.00146 8.75507e-08 8.74228e-08 -1 166.12 394.709)"/><path d="M134.797 153.193 134.59 153.193C133.645 153.193 132.682 153.291 131.727 153.483 130.779 153.674 129.911 153.986 129.144 154.409 128.22 154.913 127.538 155.543 127.114 156.281 126.69 157.021 126.474 157.854 126.474 158.761 126.474 159.63 126.714 160.451 127.186 161.201 127.661 161.957 128.349 162.585 129.232 163.071 129.917 163.444 130.748 163.729 131.699 163.917 132.658 164.107 133.599 164.202 134.492 164.202L135.088 164.202 135.068 164.426C135.038 164.747 135.013 165.046 134.991 165.323 134.97 165.597 134.955 165.797 134.948 165.922L134.938 166.116 134.253 166.116C132.629 166.116 131.082 165.871 129.654 165.389 128.219 164.906 127.058 164.238 126.203 163.407 125.612 162.831 125.128 162.148 124.763 161.377 124.394 160.599 124.208 159.73 124.208 158.793 124.208 157.75 124.396 156.809 124.767 155.995 125.138 155.18 125.648 154.472 126.283 153.889 127.19 153.052 128.362 152.405 129.769 151.968 131.165 151.533 132.781 151.311 134.569 151.311L135.14 151.311 135.155 151.499C135.183 151.841 135.214 152.156 135.247 152.444L135.306 152.967 135.104 152.998 135.306 152.976 135.335 153.218 135.09 153.203C134.986 153.196 134.889 153.193 134.797 153.193" fill="#EAC294" transform="matrix(1.00146 8.75507e-08 8.74228e-08 -1 166.12 394.709)"/><path d="M153.555 153.985C153.54 155.081 153.532 156.659 153.532 158.719 153.532 159.595 153.538 160.725 153.549 162.113 153.561 163.501 153.573 164.723 153.587 165.782L153.59 165.989 151.376 165.989 151.376 165.784C151.376 164.71 151.385 163.662 151.398 162.638 151.412 161.69 151.419 160.784 151.421 159.921 151.151 159.921 150.63 159.92 149.854 159.917 148.748 159.914 147.802 159.912 147.017 159.912 145.996 159.912 145.057 159.914 144.194 159.917 143.609 159.919 143.201 159.921 142.972 159.921 142.973 160.785 142.981 161.692 142.993 162.643 143.008 163.671 143.015 164.717 143.015 165.784L143.015 165.989 140.802 165.989 140.805 165.782C140.82 164.499 140.832 163.304 140.843 162.197 140.854 161.09 140.86 160.152 140.86 159.381 140.86 156.774 140.852 154.997 140.837 153.948 140.823 152.875 140.812 152.129 140.805 151.709L140.801 151.501 143.019 151.501 143.015 151.709C143.008 152.129 142.999 152.841 142.988 153.842 142.978 154.809 142.972 156.215 142.972 158.063 143.227 158.063 143.707 158.065 144.412 158.067 145.42 158.07 146.284 158.073 147.004 158.073 147.602 158.073 148.494 158.07 149.68 158.067 150.548 158.064 151.128 158.063 151.421 158.062 151.419 156.463 151.415 155.121 151.404 154.037 151.393 152.905 151.385 152.129 151.376 151.709L151.373 151.501 153.591 151.501 153.587 151.709C153.58 152.129 153.569 152.888 153.555 153.985" fill="#EAC294" transform="matrix(1.00146 8.75507e-08 8.74228e-08 -1 166.12 394.709)"/><path d="M163.152 154.089C163.137 155.257 163.129 156.904 163.129 159.034 163.129 159.874 163.135 160.959 163.146 162.287 163.157 163.615 163.17 164.78 163.184 165.782L163.187 165.989 160.97 165.989 160.974 165.781C160.995 164.387 161.01 163.042 161.017 161.746 161.025 160.45 161.027 159.402 161.027 158.603 161.027 156.586 161.02 155.037 161.006 153.959 160.991 152.879 160.981 152.129 160.974 151.709L160.97 151.501 163.188 151.501 163.184 151.709C163.177 152.129 163.166 152.923 163.152 154.089" fill="#EAC294" transform="matrix(1.00146 8.75507e-08 8.74228e-08 -1 166.12 394.709)"/><path d="M181.447 165.784C181.447 164.551 181.461 162.657 181.491 160.103 181.515 157.927 181.53 156.286 181.532 155.182 179.795 157.245 177.916 159.509 175.939 161.921L175.499 162.458C173.684 164.675 172.714 165.858 172.594 166.007L172.493 166.131 170.568 165.253 170.571 165.119C170.591 163.704 170.606 162.364 170.614 161.099 170.621 159.834 170.624 158.82 170.624 158.056 170.624 156.144 170.617 154.651 170.603 153.58 170.588 152.51 170.578 151.889 170.571 151.714L170.562 151.501 172.687 151.501 172.683 151.709C172.675 152.129 172.659 153.708 172.634 156.443 172.61 158.928 172.598 161.059 172.596 162.836 173.113 162.214 174.104 161.02 175.569 159.254 177.473 156.961 179.545 154.358 181.73 151.518L181.83 151.388 183.549 152.196 183.549 152.326C183.549 152.402 183.541 153.029 183.527 154.205 183.512 155.379 183.505 156.959 183.505 158.95 183.505 159.574 183.51 160.594 183.522 162.008 183.532 163.423 183.545 164.681 183.56 165.782L183.563 165.989 181.447 165.989 181.447 165.784" fill="#EAC294" transform="matrix(1.00146 8.75507e-08 8.74228e-08 -1 166.12 394.709)"/><path d="M198.226 158.261 193.632 158.261C193.947 158.931 194.331 159.757 194.783 160.739 195.226 161.7 195.613 162.532 195.945 163.235 196.356 162.345 196.751 161.489 197.13 160.665 197.512 159.832 197.878 159.031 198.226 158.261ZM201.273 156.949C199.885 159.856 198.44 162.925 196.981 166.071L196.926 166.189 195.247 166.189 195.191 166.072C193.705 162.915 192.266 159.894 190.916 157.092 189.552 154.259 188.765 152.639 188.577 152.279L188.483 152.096 190.325 151.137 190.411 151.344C190.464 151.472 190.829 152.259 191.097 152.84 191.504 153.715 192.078 154.94 192.818 156.515L199.026 156.515C199.715 155.05 200.272 153.845 200.697 152.904 201.032 152.161 201.361 151.429 201.392 151.348L201.472 151.138 203.556 152.175 203.467 152.358C203.409 152.477 202.677 154.008 201.273 156.949" fill="#EAC294" transform="matrix(1.00146 8.75507e-08 8.74228e-08 -1 166.12 394.709)"/><path d="M289.69 153.067C288.565 154.194 287.509 155.309 286.55 156.382 287.078 156.712 287.636 157.182 288.214 157.783 288.885 158.482 289.225 159.366 289.225 160.41 289.225 161.221 288.998 161.94 288.552 162.544 288.11 163.143 287.505 163.603 286.752 163.91 286.171 164.146 285.566 164.303 284.954 164.376 283.833 164.506 282.683 164.489 281.273 164.461 280.62 164.447 280.258 164.44 280.186 164.44L279.978 164.44 279.982 164.232C280.018 161.742 280.036 160.003 280.036 159.061L280.036 157.117C280.036 155.316 280.029 153.811 280.014 152.602 280 151.394 279.989 150.579 279.982 150.16L279.978 149.951 282.196 149.951 282.192 150.16C282.185 150.58 282.176 151.614 282.165 153.262 282.154 154.91 282.149 156.214 282.149 157.175 282.149 157.596 282.15 158.315 282.154 159.331 282.158 160.297 282.166 161.405 282.18 162.656 282.212 162.657 282.249 162.658 282.288 162.659 282.424 162.662 282.623 162.663 282.883 162.663 283.271 162.663 283.699 162.648 284.158 162.617 284.602 162.587 285.031 162.496 285.435 162.349 285.911 162.181 286.29 161.915 286.559 161.561 286.828 161.205 286.959 160.79 286.959 160.29 286.959 159.739 286.866 159.299 286.686 158.981 286.498 158.65 286.275 158.372 286.025 158.15 285.726 157.89 285.35 157.642 284.908 157.415 284.464 157.188 284.108 157.04 283.846 156.973L283.71 156.938 283.673 156.611 283.735 156.543C285.765 154.304 287.267 152.657 288.244 151.601 289.232 150.531 289.79 149.931 289.952 149.77L290.08 149.641 291.767 150.976 291.611 151.138C291.523 151.229 290.883 151.873 289.69 153.067" fill="#EAC294" transform="matrix(1.00146 8.75507e-08 8.74228e-08 -1 166.12 394.709)"/><path d="M305.37 151.836 305.097 151.833C304.359 151.826 303.447 151.822 302.362 151.822 301.658 151.822 300.999 151.824 300.388 151.827 299.868 151.83 299.414 151.835 299.028 151.84 299.021 152.328 299.015 152.914 299.007 153.596 299 154.333 298.996 155.316 298.996 156.544 299.284 156.545 299.623 156.547 300.011 156.55 300.495 156.553 300.912 156.555 301.261 156.555 302.206 156.555 303.25 156.55 304.392 156.537 305.537 156.527 306.139 156.523 306.196 156.523L306.401 156.523 306.401 158.383 306.196 158.383C306.131 158.383 305.593 158.378 304.583 158.367 303.576 158.357 302.431 158.352 301.15 158.352 300.802 158.352 300.404 158.354 299.957 158.357 299.598 158.36 299.278 158.361 298.996 158.362 298.997 159.001 299.005 159.677 299.019 160.388 299.032 161.11 299.039 161.834 299.04 162.558 299.318 162.559 299.666 162.561 300.082 162.563 300.606 162.566 301.14 162.568 301.686 162.568 302.938 162.568 303.983 162.563 304.823 162.553 305.666 162.542 306.123 162.537 306.196 162.537L306.401 162.537 306.401 164.408 306.196 164.408C306.123 164.408 305.649 164.405 304.776 164.398 303.902 164.391 302.77 164.387 301.38 164.387 300.558 164.387 299.759 164.391 298.984 164.398 298.209 164.405 297.562 164.408 297.045 164.408L296.837 164.408 296.841 164.2C296.863 162.806 296.877 161.457 296.884 160.155 296.892 158.851 296.895 157.803 296.895 157.012 296.895 155.568 296.89 154.17 296.879 152.818 296.868 151.472 296.855 150.587 296.841 150.184L296.832 149.972 297.045 149.972C297.577 149.972 298.228 149.975 298.996 149.983 299.763 149.989 300.609 149.993 301.533 149.993 302.865 149.993 303.982 149.989 304.884 149.983 305.788 149.975 306.272 149.972 306.338 149.972L306.543 149.972 306.543 151.844 306.338 151.844C306.262 151.844 305.941 151.84 305.37 151.836" fill="#EAC294" transform="matrix(1.00146 8.75507e-08 8.74228e-08 -1 166.12 394.709)"/><path d="M318.471 157.558C317.989 157.828 317.498 158.08 317.01 158.307 316.528 158.529 316.135 158.73 315.84 158.902 315.279 159.223 314.896 159.531 314.701 159.822 314.511 160.106 314.414 160.402 314.414 160.702 314.414 161.047 314.502 161.339 314.683 161.593 314.867 161.853 315.093 162.059 315.356 162.206 315.666 162.376 316.03 162.505 316.44 162.588 316.858 162.674 317.269 162.716 317.661 162.716 318.334 162.716 318.908 162.695 319.368 162.654 319.832 162.612 320.097 162.587 320.162 162.58L320.412 162.554 320.216 164.495 320.051 164.512C319.985 164.519 319.717 164.535 319.248 164.56 317.923 164.631 316.626 164.604 315.567 164.339 314.87 164.164 314.272 163.899 313.785 163.549 313.307 163.198 312.911 162.769 312.611 162.276 312.304 161.773 312.149 161.172 312.149 160.493 312.149 159.825 312.318 159.211 312.654 158.665 312.987 158.123 313.546 157.621 314.314 157.172 314.758 156.907 315.26 156.65 315.808 156.404 316.343 156.163 316.787 155.943 317.123 155.751 317.626 155.465 317.986 155.168 318.199 154.87 318.401 154.58 318.506 154.218 318.506 153.794 318.506 153.402 318.404 153.077 318.206 152.828 317.996 152.566 317.688 152.338 317.289 152.149 316.981 152.004 316.525 151.883 315.936 151.788 315.337 151.691 314.844 151.644 314.471 151.644 313.844 151.644 313.295 151.662 312.839 151.7 312.379 151.738 312.1 151.763 312 151.778L311.753 151.814 311.864 149.872 312.042 149.857C312.123 149.851 312.413 149.833 312.917 149.804 313.419 149.777 313.91 149.762 314.376 149.762 315.247 149.762 316.052 149.843 316.772 150.003 317.497 150.166 318.149 150.407 318.707 150.725 319.332 151.075 319.837 151.542 320.206 152.11 320.58 152.685 320.77 153.36 320.77 154.12 320.77 154.845 320.572 155.501 320.182 156.07 319.8 156.63 319.223 157.13 318.471 157.558" fill="#EAC294" transform="matrix(1.00146 8.75507e-08 8.74228e-08 -1 166.12 394.709)"/><path d="M335.364 164.398C334.182 164.391 332.71 164.387 330.948 164.387 329.733 164.387 328.588 164.391 327.515 164.398 326.44 164.405 325.528 164.408 324.778 164.408L324.574 164.408 324.574 162.547 324.778 162.547C324.872 162.547 325.403 162.553 326.369 162.563 327.291 162.573 328.482 162.575 329.939 162.569 329.959 161.178 329.969 160.14 329.969 159.453L329.969 156.544C329.969 155.303 329.963 154.034 329.952 152.736 329.941 151.441 329.928 150.583 329.914 150.163L329.907 149.951 332.129 149.951 332.125 150.16C332.117 150.581 332.109 151.427 332.097 152.699 332.086 153.972 332.082 155.225 332.082 156.459 332.082 157.742 332.085 158.756 332.092 159.498L332.123 162.568C333.76 162.568 334.992 162.564 335.818 162.558 336.677 162.551 337.166 162.547 337.282 162.547L337.487 162.547 337.487 164.408 337.282 164.408C337.189 164.408 336.548 164.405 335.364 164.398" fill="#EAC294" transform="matrix(1.00146 8.75507e-08 8.74228e-08 -1 166.12 394.709)"/><path d="M349.718 156.712 345.125 156.712C345.44 157.38 345.823 158.206 346.275 159.19 346.718 160.151 347.105 160.983 347.437 161.685 347.848 160.795 348.243 159.939 348.622 159.114 349.005 158.283 349.37 157.482 349.718 156.712ZM352.766 155.4C351.377 158.307 349.933 161.376 348.473 164.521L348.418 164.639 346.739 164.639 346.683 164.521C345.208 161.388 343.769 158.367 342.409 155.542 341.044 152.71 340.257 151.09 340.068 150.728L339.975 150.548 341.817 149.586 341.903 149.794C341.929 149.855 342.051 150.132 342.59 151.289 342.996 152.165 343.57 153.39 344.31 154.966L350.516 154.966C351.207 153.499 351.764 152.296 352.189 151.355 352.352 150.996 352.844 149.902 352.884 149.799L352.964 149.588 355.047 150.625 354.959 150.807C354.901 150.927 354.17 152.457 352.766 155.4" fill="#EAC294" transform="matrix(1.00146 8.75507e-08 8.74228e-08 -1 166.12 394.709)"/><path d="M370.044 164.234C370.044 164.136 370.05 163.558 370.065 162.496 370.079 161.44 370.087 160.081 370.087 158.42 370.087 157.932 370.084 157.427 370.081 156.855 370.077 156.314 370.075 155.761 370.075 155.192 370.075 153.913 369.742 152.967 369.084 152.38 368.42 151.787 367.396 151.486 366.042 151.486 364.795 151.486 363.797 151.803 363.075 152.429 362.362 153.047 361.998 153.978 361.998 155.192 361.998 155.761 361.997 156.314 361.994 156.855 361.99 157.393 361.988 157.916 361.988 158.42 361.988 160.081 361.994 161.421 362.004 162.44 362.015 163.456 362.024 164.051 362.032 164.226L362.041 164.44 359.821 164.44 359.821 164.234C359.821 162.887 359.828 161.773 359.843 160.894 359.857 160.015 359.864 159.25 359.864 158.599 359.864 157.8 359.863 157.12 359.858 156.556 359.855 155.99 359.854 155.501 359.854 155.087 359.854 154.25 359.985 153.501 360.246 152.86 360.507 152.215 360.907 151.643 361.439 151.161 361.973 150.675 362.631 150.293 363.397 150.025 364.159 149.76 365.049 149.626 366.042 149.626 367.037 149.626 367.928 149.762 368.688 150.031 369.452 150.301 370.108 150.682 370.636 151.161 371.165 151.641 371.567 152.214 371.829 152.86 372.089 153.501 372.221 154.25 372.221 155.087 372.221 155.501 372.219 155.99 372.216 156.556 372.212 157.12 372.21 157.8 372.21 158.599 372.21 159.25 372.217 160.015 372.232 160.894 372.246 161.774 372.253 162.887 372.253 164.234L372.253 164.44 370.044 164.44 370.044 164.234" fill="#EAC294" transform="matrix(1.00146 8.75507e-08 8.74228e-08 -1 166.12 394.709)"/><path d="M389.218 153.067C388.089 154.198 387.033 155.313 386.077 156.382 386.604 156.711 387.163 157.181 387.74 157.783 388.412 158.481 388.752 159.365 388.752 160.41 388.752 161.222 388.525 161.94 388.079 162.544 387.637 163.143 387.032 163.603 386.279 163.91 385.699 164.146 385.094 164.303 384.481 164.376 383.361 164.507 382.213 164.489 380.799 164.461 380.147 164.447 379.785 164.44 379.714 164.44L379.506 164.44 379.509 164.232C379.543 161.759 379.563 160.02 379.563 159.061L379.563 157.117C379.563 155.316 379.556 153.811 379.542 152.602 379.526 151.394 379.516 150.579 379.509 150.16L379.505 149.951 381.723 149.951 381.719 150.16C381.711 150.58 381.702 151.614 381.691 153.262 381.681 154.91 381.675 156.214 381.675 157.175 381.675 157.596 381.676 158.315 381.681 159.331 381.684 160.297 381.692 161.405 381.706 162.656 381.739 162.657 381.776 162.658 381.814 162.659 381.951 162.662 382.15 162.663 382.41 162.663 382.797 162.663 383.225 162.648 383.685 162.617 384.129 162.587 384.559 162.496 384.962 162.349 385.44 162.181 385.818 161.915 386.086 161.561 386.351 161.209 386.488 160.781 386.488 160.29 386.488 159.739 386.395 159.299 386.214 158.981 386.024 158.65 385.802 158.372 385.551 158.15 385.253 157.89 384.876 157.641 384.435 157.415 383.992 157.188 383.635 157.04 383.374 156.973L383.237 156.938 383.2 156.611 383.262 156.543C385.293 154.304 386.795 152.657 387.771 151.601 388.719 150.575 389.308 149.941 389.477 149.771L389.606 149.641 391.294 150.976 391.137 151.138C391.05 151.229 390.411 151.873 389.218 153.067" fill="#EAC294" transform="matrix(1.00146 8.75507e-08 8.74228e-08 -1 166.12 394.709)"/><path d="M403.669 156.712 399.077 156.712C399.391 157.38 399.775 158.206 400.227 159.19 400.669 160.151 401.056 160.983 401.388 161.685 401.8 160.795 402.196 159.939 402.574 159.115 402.956 158.283 403.321 157.482 403.669 156.712ZM406.716 155.4C405.32 158.325 403.877 161.393 402.425 164.521L402.371 164.639 400.69 164.639 400.634 164.521C399.15 161.367 397.711 158.346 396.36 155.542 394.995 152.71 394.207 151.09 394.021 150.728L393.927 150.548 395.769 149.586 395.854 149.794C395.907 149.922 396.271 150.709 396.541 151.289 396.948 152.165 397.522 153.39 398.262 154.966L404.468 154.966C405.157 153.505 405.718 152.292 406.14 151.355 406.617 150.3 406.812 149.858 406.837 149.798L406.919 149.589 408.999 150.625 408.909 150.807C408.852 150.927 408.121 152.457 406.716 155.4" fill="#EAC294" transform="matrix(1.00146 8.75507e-08 8.74228e-08 -1 166.12 394.709)"/><path d="M424.758 164.234C424.758 163.001 424.773 161.107 424.803 158.553 424.828 156.378 424.841 154.737 424.844 153.634 423.107 155.696 421.227 157.96 419.252 160.371 417.151 162.935 416.036 164.297 415.905 164.458L415.805 164.582 413.88 163.703 413.882 163.569C413.904 162.153 413.918 160.814 413.925 159.549 413.933 158.285 413.936 157.27 413.936 156.506 413.936 154.594 413.93 153.102 413.914 152.03 413.9 150.961 413.889 150.339 413.882 150.164L413.873 149.951 415.999 149.951 415.995 150.16C415.987 150.579 415.971 152.157 415.946 154.894 415.922 157.378 415.909 159.508 415.907 161.284 416.426 160.663 417.417 159.47 418.881 157.704 420.785 155.412 422.858 152.809 425.042 149.968L425.142 149.838 426.86 150.647 426.86 150.776C426.86 150.853 426.853 151.48 426.839 152.656 426.824 153.829 426.817 155.411 426.817 157.4 426.817 158.024 426.822 159.043 426.834 160.459 426.845 161.874 426.857 163.132 426.871 164.232L426.874 164.44 424.758 164.44 424.758 164.234" fill="#EAC294" transform="matrix(1.00146 8.75507e-08 8.74228e-08 -1 166.12 394.709)"/><path d="M444.532 164.408C444.436 164.408 443.796 164.405 442.613 164.398 441.429 164.391 439.957 164.387 438.196 164.387 436.981 164.387 435.836 164.391 434.764 164.398 433.69 164.405 432.777 164.408 432.027 164.408L431.822 164.408 431.822 162.547 432.027 162.547C432.122 162.547 432.651 162.553 433.617 162.563 434.54 162.573 435.727 162.575 437.187 162.569 437.207 161.178 437.217 160.14 437.217 159.453L437.217 156.544C437.217 155.303 437.212 154.034 437.201 152.736 437.189 151.441 437.177 150.583 437.163 150.163L437.156 149.951 439.377 149.951 439.373 150.16C439.366 150.58 439.357 151.427 439.346 152.699 439.335 153.972 439.33 155.225 439.33 156.459 439.33 157.742 439.333 158.756 439.34 159.498L439.371 162.568C441.008 162.568 442.241 162.564 443.065 162.558 443.926 162.551 444.414 162.547 444.532 162.547L444.736 162.547 444.736 164.408 444.532 164.408" fill="#EAC294" transform="matrix(1.00146 8.75507e-08 8.74228e-08 -1 166.12 394.709)"/></g></g></g></svg>