<?xml version="1.0" standalone="no"?>
<!DOCTYPE svg PUBLIC "-//W3C//DTD SVG 20010904//EN"
 "http://www.w3.org/TR/2001/REC-SVG-20010904/DTD/svg10.dtd">
<svg version="1.0" xmlns="http://www.w3.org/2000/svg"
 width="976.000000pt" height="976.000000pt" viewBox="0 0 976.000000 976.000000"
 preserveAspectRatio="xMidYMid meet">
<metadata>
Created by potrace 1.11, written by Peter Selinger 2001-2013
</metadata>
<g transform="translate(0.000000,976.000000) scale(0.100000,-0.100000)"
fill="#000000" stroke="none">
<path d="M8927 9423 c-1 0 -72 -4 -157 -8 -188 -8 -249 -12 -360 -20 -47 -4
-114 -8 -150 -11 -36 -2 -94 -6 -130 -9 -36 -3 -94 -7 -130 -10 -36 -2 -85 -7
-110 -10 -25 -2 -75 -7 -112 -10 -37 -2 -86 -7 -110 -10 -24 -3 -68 -8 -98
-11 -123 -11 -241 -23 -282 -30 -15 -2 -49 -6 -75 -9 -27 -3 -64 -7 -83 -10
-19 -2 -55 -7 -80 -10 -38 -5 -129 -19 -265 -41 -48 -7 -128 -22 -156 -28 -14
-3 -39 -7 -55 -9 -17 -2 -34 -6 -39 -9 -6 -3 -26 -8 -45 -12 -19 -3 -46 -9
-60 -12 -14 -3 -34 -7 -46 -9 -76 -16 -266 -89 -306 -117 -16 -11 -28 -16 -28
-11 0 4 -4 3 -8 -2 -4 -6 -23 -22 -42 -35 -73 -51 -114 -108 -215 -295 -21
-38 -41 -74 -45 -80 -4 -5 -29 -50 -56 -100 -26 -49 -63 -117 -81 -150 -18
-33 -46 -85 -61 -115 -14 -30 -29 -57 -32 -60 -3 -3 -28 -50 -57 -105 -103
-201 -118 -230 -123 -235 -3 -3 -23 -41 -45 -85 -22 -44 -54 -106 -72 -137
-17 -32 -30 -58 -28 -58 2 0 -19 -41 -46 -91 -27 -49 -49 -93 -49 -96 0 -3
-13 -28 -30 -54 -16 -27 -28 -49 -25 -49 2 0 -4 -15 -14 -32 -11 -18 -40 -76
-66 -128 -26 -52 -52 -98 -57 -101 -5 -3 -9 -9 -8 -13 1 -6 -106 -223 -233
-468 -31 -60 -53 -108 -49 -108 4 0 2 -4 -4 -8 -6 -4 -24 -34 -40 -67 -17 -33
-48 -94 -69 -135 -21 -41 -39 -77 -40 -80 0 -3 -6 -14 -12 -25 -6 -11 -57
-110 -113 -220 -330 -645 -397 -776 -498 -965 -24 -47 -67 -128 -94 -180 -28
-52 -55 -101 -60 -107 -6 -7 -7 -13 -4 -13 4 0 -1 -12 -12 -27 -10 -16 -30
-51 -45 -79 -14 -28 -40 -78 -58 -110 -36 -67 -82 -152 -135 -251 -21 -38 -42
-77 -49 -88 -7 -11 -29 -51 -50 -90 -21 -38 -48 -88 -61 -110 -13 -22 -35 -65
-51 -95 -15 -30 -31 -57 -34 -60 -5 -5 -36 -59 -85 -150 -11 -19 -22 -36 -26
-38 -5 -2 -8 -7 -8 -12 0 -9 -160 -287 -191 -332 -11 -15 -19 -31 -19 -37 0
-5 -3 -11 -8 -13 -4 -1 -34 -48 -66 -103 -33 -55 -63 -101 -68 -103 -4 -2 -8
-9 -8 -16 0 -6 -7 -21 -15 -31 -9 -11 -46 -67 -83 -125 -36 -58 -70 -106 -74
-108 -4 -2 -8 -10 -8 -18 0 -8 -4 -14 -10 -14 -5 0 -10 -6 -10 -13 0 -7 -9
-23 -20 -35 -11 -12 -20 -24 -20 -27 0 -5 -207 -299 -236 -334 -7 -9 -41 -52
-75 -96 -35 -44 -68 -85 -73 -92 -6 -6 -31 -35 -56 -64 -105 -122 -372 -369
-398 -369 -5 0 -17 -8 -28 -18 -82 -74 -302 -164 -459 -187 -11 -2 -20 -4 -20
-5 0 -3 -106 -18 -185 -25 -79 -7 -253 -15 -416 -19 -132 -3 -144 -5 -192 -31
-158 -86 -110 -329 89 -442 40 -23 79 -35 109 -35 15 0 55 9 55 12 0 1 7 3 15
5 24 6 93 25 115 31 11 3 31 7 45 8 14 1 30 5 35 8 9 5 96 25 150 33 11 2 20
4 20 5 0 1 9 3 20 5 11 2 47 9 80 15 33 6 69 13 80 15 11 2 22 4 25 5 3 1 8 2
12 1 4 0 42 6 85 14 111 20 306 47 433 60 19 2 60 6 90 10 101 12 103 12 300
30 25 3 79 7 120 10 41 3 93 7 115 10 34 3 112 9 285 21 19 1 35 2 35 3 0 1
50 3 110 6 61 2 151 7 200 9 229 13 499 23 793 31 101 2 187 7 193 10 5 4 9 1
9 -5 0 -6 5 -8 11 -4 35 21 1770 21 2064 -1 33 -2 107 -7 165 -11 58 -3 119
-8 135 -9 17 -1 76 -5 133 -9 57 -4 112 -9 124 -11 11 -3 46 -7 77 -10 31 -3
76 -8 101 -11 25 -2 68 -7 95 -10 28 -2 61 -7 75 -9 14 -2 48 -7 75 -10 28 -4
57 -8 65 -10 8 -2 40 -7 70 -10 30 -4 59 -9 64 -12 5 -4 25 -7 45 -8 42 -3
104 -15 295 -57 77 -17 144 -31 150 -32 6 -1 17 -5 24 -10 7 -4 16 -6 19 -3 3
3 22 0 42 -8 20 -8 63 -21 96 -30 33 -9 67 -19 75 -22 8 -4 17 -7 20 -8 121
-30 166 -77 175 -183 15 -160 15 -161 50 -196 30 -30 38 -33 94 -34 46 0 61 3
61 14 0 8 5 14 10 14 6 0 10 4 10 9 0 5 18 49 40 98 57 124 57 122 81 183 12
30 30 74 40 97 11 24 19 48 19 53 0 6 9 29 20 50 11 22 18 40 15 40 -2 0 6 24
18 53 13 28 27 66 32 82 5 17 9 32 10 35 1 3 15 48 32 100 48 145 56 207 39
293 -8 43 -52 112 -91 145 -34 27 -112 71 -138 76 -7 2 -25 9 -42 16 -16 7
-39 14 -51 15 -11 2 -38 8 -60 13 -66 18 -320 36 -659 48 -354 13 -676 9 -970
-10 -27 -2 -97 -7 -155 -10 -58 -4 -127 -9 -155 -12 -27 -2 -93 -6 -145 -9
-52 -3 -113 -7 -135 -10 -22 -2 -69 -7 -105 -9 -36 -3 -103 -8 -150 -12 -47
-4 -104 -7 -127 -8 -24 -1 -43 -3 -43 -6 0 -3 -19 -5 -43 -6 -23 0 -73 -4
-112 -7 -73 -7 -195 -18 -255 -22 -19 -2 -35 -4 -35 -4 0 -1 -29 -4 -65 -6
-36 -2 -85 -6 -110 -9 -25 -3 -71 -8 -102 -11 -110 -10 -163 -15 -223 -20 -33
-3 -78 -8 -100 -10 -85 -9 -181 -18 -212 -19 -18 -1 -35 -5 -39 -9 -4 -3 -15
-2 -25 4 -11 5 -19 6 -19 1 0 -5 -12 -9 -27 -9 -16 0 -55 -3 -88 -7 -33 -4
-82 -9 -110 -12 -27 -2 -69 -6 -93 -9 -24 -3 -73 -8 -110 -11 -37 -2 -78 -7
-92 -9 -14 -2 -61 -7 -105 -11 -44 -3 -88 -8 -99 -10 -10 -2 -44 -6 -75 -9
-31 -3 -74 -8 -96 -10 -42 -5 -111 -12 -185 -21 -25 -2 -61 -7 -80 -9 -19 -3
-60 -7 -90 -10 -30 -3 -73 -8 -95 -10 -109 -14 -133 -17 -175 -20 -25 -2 -45
-4 -45 -5 0 -3 -76 -11 -120 -13 -22 -1 -43 -6 -47 -12 -5 -6 -8 -6 -8 1 0 7
25 24 55 39 30 16 55 32 55 37 0 4 6 8 13 8 13 0 69 35 272 169 148 97 132 86
207 146 31 25 61 45 66 45 6 0 12 4 14 8 2 4 37 35 78 67 104 84 133 108 235
198 81 72 378 366 450 448 28 31 70 79 95 109 68 80 80 93 101 118 10 12 19
25 19 28 0 2 10 16 23 29 24 27 29 32 71 90 17 22 33 42 36 45 10 8 130 180
130 186 0 3 11 17 25 32 14 15 25 32 25 39 0 6 3 13 8 15 11 5 152 215 152
227 0 6 4 11 8 11 5 0 15 12 23 27 8 15 42 69 76 120 35 51 63 95 63 97 0 3
21 35 46 71 25 37 49 78 54 91 5 13 14 24 19 24 5 0 12 11 15 25 4 14 11 25
16 25 6 0 10 7 10 15 0 8 5 15 10 15 6 0 10 4 10 9 0 11 101 173 113 182 5 3
8 9 7 13 -1 4 18 37 42 74 23 37 48 76 54 87 6 11 70 118 143 237 72 120 131
222 131 228 0 5 3 10 8 10 4 0 18 21 32 48 13 26 27 49 30 52 4 3 53 86 110
185 56 99 119 207 138 240 62 107 74 129 100 175 14 25 33 57 43 72 11 14 19
29 19 32 0 4 27 53 60 109 33 57 60 109 60 115 0 7 3 12 8 12 4 0 23 30 42 66
19 36 40 73 45 82 42 70 99 178 97 185 -1 4 3 7 8 7 6 0 10 7 10 15 0 8 4 15
10 15 5 0 9 3 8 8 -2 4 21 49 50 99 28 51 52 97 52 102 0 5 3 11 8 13 4 2 16
21 27 43 22 44 140 261 155 285 5 8 20 35 32 60 13 25 25 47 28 50 3 3 17 28
30 55 14 28 28 52 31 55 3 3 12 19 21 35 21 42 87 164 108 200 10 17 37 66 60
109 24 44 92 168 152 275 59 107 108 199 108 203 0 4 5 8 10 8 6 0 10 5 10 10
0 10 202 359 222 385 5 6 31 46 59 90 182 285 375 456 621 548 34 13 65 24 68
25 3 0 25 5 50 12 24 6 58 13 75 15 16 2 30 4 30 5 0 13 402 19 505 7 30 -3
72 -9 94 -12 21 -4 50 -8 65 -10 14 -2 27 -4 29 -6 1 -1 10 -2 20 -3 9 -1 26
-5 37 -9 11 -3 36 -9 55 -12 19 -3 43 -8 52 -11 19 -6 61 15 99 49 52 47 78
165 54 245 -16 53 -62 122 -81 122 -8 0 -14 4 -14 9 0 23 -62 31 -223 29 -93
-2 -169 -4 -170 -5z"/>
</g>
</svg>
